<svg width="80" height="96" viewBox="0 0 80 96" fill="none" xmlns="http://www.w3.org/2000/svg">
<path d="M28.591 91.3903C22.9773 89.167 17.8558 85.696 13.5563 81.2009C9.41292 76.7976 6.17982 71.493 4.07063 65.6372C1.8505 59.5054 0.731825 52.9714 0.774621 46.3857C0.743336 40.2423 1.74263 34.1438 3.72391 28.3867C5.60793 22.8591 8.49886 17.7974 12.2251 13.5024C16.0715 9.14857 20.7517 5.7588 25.9372 3.57104C31.6619 1.13727 37.7682 -0.0726182 43.9182 0.00828914C54.4805 -0.167323 64.9227 2.44982 74.3386 7.63257L65.3167 44.1357H65.0841C51.4299 18.3783 39.7479 5.49967 30.0378 5.49967C28.5988 5.49628 27.1812 5.87662 25.9103 6.6071C24.6394 7.33757 23.5543 8.39567 22.7509 9.68787C20.8228 12.48 19.8587 16.4592 19.8587 21.6255C19.9688 27.6797 20.9055 33.6831 22.6383 39.4408C24.5932 46.2535 27.1496 52.8468 30.2719 59.1293C33.5098 65.7139 37.3461 71.9327 41.7238 77.6936C45.7867 83.1371 50.4042 88.067 55.4886 92.3895V60.7618L45.0769 51.5098H79.7734V83.5143C75.4357 87.201 70.5459 90.0551 65.3167 91.9525C59.7697 94.0068 53.9443 95.0418 48.0817 95.0148C41.4353 95.0995 34.8302 93.8712 28.591 91.3903Z" fill="#6E8568"/>
</svg>
