<svg width="516" height="180" viewBox="0 0 516 180" fill="none" xmlns="http://www.w3.org/2000/svg">
<path d="M90.2065 180C60.9602 180 38.5685 172.952 23.0315 158.855C7.67715 144.759 0 121.988 0 90.5422C0 68.8554 3.473 51.4157 10.419 38.2229C17.365 24.8494 27.5098 15.1807 40.8534 9.21687C54.3798 3.07229 70.8309 0 90.2065 0C109.582 0 125.942 3.07229 139.285 9.21687C152.812 15.1807 163.048 24.8494 169.994 38.2229C176.94 51.4157 180.413 68.8554 180.413 90.5422C180.413 121.988 172.644 144.759 157.107 158.855C141.57 172.952 119.27 180 90.2065 180Z" fill="#3E5BFE"/>
<path fill-rule="evenodd" clip-rule="evenodd" d="M132.732 86.858H110.986C110.77 85.628 110.439 84.4407 110.001 83.3033C109.533 82.0518 108.936 80.8645 108.231 79.7485C104.621 74.0039 98.1854 70.1861 90.8503 70.1861C83.5153 70.1861 77.0792 74.0039 73.4691 79.7485C72.7644 80.8645 72.1675 82.0518 71.7001 83.3033C71.2614 84.4407 70.9307 85.628 70.715 86.858H63.4301C63.5957 85.6494 63.833 84.4621 64.1493 83.3033C64.4802 82.0804 64.8972 80.893 65.3935 79.7485C69.6075 69.9585 79.4306 63.0765 90.8503 63.0765C102.27 63.0765 112.093 69.9585 116.307 79.7485H123.98C119.428 65.963 106.297 55.9669 90.8503 55.9669C75.4036 55.9669 62.2725 65.963 57.7204 79.7485C57.3321 80.9073 57.0157 82.0946 56.7567 83.3033C56.505 84.4691 56.318 85.6494 56.1959 86.858H48.9688C49.0766 85.6566 49.2277 84.4691 49.4362 83.3033C49.6448 82.1017 49.9036 80.9144 50.22 79.7485C54.995 61.9816 71.3981 48.8574 90.8503 48.8574C110.302 48.8574 126.706 61.9816 131.481 79.7485C131.797 80.9144 132.056 82.1017 132.272 83.3033C132.473 84.4691 132.624 85.6566 132.732 86.858Z" fill="white"/>
<path fill-rule="evenodd" clip-rule="evenodd" d="M132.732 94.8408C132.624 96.0292 132.473 97.2036 132.272 98.3568C132.056 99.5454 131.797 100.72 131.481 101.873C126.706 119.447 110.302 132.428 90.8503 132.428C71.3981 132.428 54.995 119.447 50.22 101.873C49.9036 100.72 49.6448 99.5454 49.4362 98.3568C49.2277 97.2036 49.0766 96.0292 48.9688 94.8408H70.715C70.9235 96.0574 71.2614 97.2318 71.7001 98.3568C72.1675 99.5946 72.7644 100.769 73.4691 101.873C77.0719 107.555 83.508 111.331 90.8503 111.331C98.1926 111.331 104.629 107.555 108.231 101.873C108.936 100.769 109.533 99.5946 110.001 98.3568C110.439 97.2318 110.777 96.0574 110.986 94.8408H118.27C118.105 96.0362 117.868 97.2106 117.551 98.3568C117.22 99.5665 116.803 100.741 116.307 101.873C112.093 111.557 102.27 118.364 90.8503 118.364C79.4306 118.364 69.6075 111.557 65.3935 101.873H57.7204C62.2652 115.516 75.3964 125.396 90.8503 125.396C106.304 125.396 119.435 115.516 123.98 101.873C124.369 100.727 124.685 99.5524 124.944 98.3568C125.196 97.2036 125.382 96.0292 125.505 94.8408H132.732Z" fill="white"/>
<path d="M271.396 133.685C257.96 133.685 247.672 130.417 240.534 123.882C233.48 117.347 229.953 106.79 229.953 92.211C229.953 82.1567 231.549 74.0714 234.74 67.9551C237.931 61.7549 242.592 57.2724 248.722 54.5074C254.937 51.6587 262.495 50.2344 271.396 50.2344C280.298 50.2344 287.814 51.6587 293.944 54.5074C300.159 57.2724 304.861 61.7549 308.053 67.9551C311.244 74.0714 312.839 82.1567 312.839 92.211C312.839 106.79 309.27 117.347 302.132 123.882C294.994 130.417 284.749 133.685 271.396 133.685ZM271.396 113.576C277.443 113.576 281.81 111.901 284.497 108.549C287.268 105.114 288.654 99.6679 288.654 92.211C288.654 84.2514 287.268 78.6377 284.497 75.3701C281.81 72.0187 277.443 70.3429 271.396 70.3429C265.35 70.3429 260.941 72.0187 258.17 75.3701C255.482 78.6377 254.139 84.2514 254.139 92.211C254.139 99.6679 255.482 105.114 258.17 108.549C260.941 111.901 265.35 113.576 271.396 113.576Z" fill="#001024"/>
<path d="M321.658 132.428V51.4912H357.936C366.25 51.4912 373.346 52.8736 379.225 55.6386C385.103 58.3197 389.596 62.6766 392.703 68.7091C395.811 74.6579 397.364 82.5757 397.364 92.4624C397.364 106.371 393.963 116.509 387.161 122.877C380.359 129.244 370.617 132.428 357.936 132.428H321.658ZM345.34 114.33H354.913C358.86 114.33 362.177 113.786 364.865 112.697C367.552 111.524 369.609 109.387 371.037 106.287C372.465 103.103 373.178 98.495 373.178 92.4624C373.178 86.4298 372.507 81.7797 371.163 78.5121C369.903 75.1606 367.93 72.8565 365.243 71.5997C362.555 70.2592 359.112 69.5889 354.913 69.5889H345.34V114.33Z" fill="#001024"/>
<path d="M406.169 132.428V51.4912H429.851V132.428H406.169Z" fill="#001024"/>
<path d="M441.228 132.428V51.4912H461.383L491.993 94.3476V51.4912H515.675V132.428H495.394L464.91 89.6974V132.428H441.228Z" fill="#001024"/>
</svg>
